<svg width="35" height="44" viewBox="0 0 35 44" fill="none" xmlns="http://www.w3.org/2000/svg">
<g id="Layer 2">
<path id="Vector" d="M17.2857 44C17.6402 43.9979 17.9835 43.8761 18.26 43.6543C18.8571 43.12 34.5714 30.4543 34.5714 17.2857C34.5714 12.7013 32.7503 8.30457 29.5086 5.06287C26.2669 1.82117 21.8702 0 17.2857 0C12.7013 0 8.30457 1.82117 5.06287 5.06287C1.82117 8.30457 0 12.7013 0 17.2857C0 30.4543 15.7143 43.12 16.3114 43.6543C16.5879 43.8761 16.9313 43.9979 17.2857 44ZM3.14286 17.2857C3.14286 13.5348 4.6329 9.9375 7.2852 7.2852C9.9375 4.6329 13.5348 3.14286 17.2857 3.14286C21.0366 3.14286 24.6339 4.6329 27.2862 7.2852C29.9385 9.9375 31.4286 13.5348 31.4286 17.2857C31.4286 27.1857 20.6329 37.4157 17.2857 40.37C13.9386 37.4157 3.14286 27.1857 3.14286 17.2857Z" fill="#2E3192"/>
<path id="Vector_2" d="M25.1428 17.2857C25.1428 15.7317 24.682 14.2126 23.8187 12.9205C22.9553 11.6284 21.7282 10.6214 20.2925 10.0267C18.8568 9.43199 17.277 9.2764 15.7529 9.57957C14.2287 9.88273 12.8287 10.6311 11.7299 11.7299C10.631 12.8287 9.8827 14.2287 9.57953 15.7529C9.27637 17.277 9.43196 18.8568 10.0267 20.2925C10.6213 21.7282 11.6284 22.9554 12.9205 23.8187C14.2126 24.6821 15.7317 25.1429 17.2857 25.1429C19.3695 25.1429 21.368 24.3151 22.8415 22.8416C24.315 21.3681 25.1428 19.3696 25.1428 17.2857ZM12.5714 17.2857C12.5714 16.3533 12.8479 15.4419 13.3659 14.6666C13.8839 13.8914 14.6202 13.2871 15.4816 12.9303C16.343 12.5735 17.2909 12.4801 18.2054 12.662C19.1199 12.8439 19.9599 13.2929 20.6192 13.9522C21.2785 14.6115 21.7275 15.4515 21.9094 16.366C22.0913 17.2805 21.998 18.2284 21.6411 19.0898C21.2843 19.9512 20.6801 20.6875 19.9048 21.2055C19.1296 21.7235 18.2181 22 17.2857 22C16.0354 22 14.8363 21.5033 13.9522 20.6192C13.0681 19.7351 12.5714 18.536 12.5714 17.2857Z" fill="#2E3192"/>
</g>
</svg>
