<svg width="30" height="30" viewBox="0 0 30 30" fill="none" xmlns="http://www.w3.org/2000/svg">
<g id="linkedin (2) 1" clip-path="url(#clip0_745_196)">
<g id="Layer 2">
<g id="Layer 1">
<path id="Vector" d="M23.2664 0H6.73363C3.01475 0 0 3.01475 0 6.73363V23.2664C0 26.9852 3.01475 30 6.73363 30H23.2664C26.9852 30 30 26.9852 30 23.2664V6.73363C30 3.01475 26.9852 0 23.2664 0Z" fill="#0B86CA"/>
<path id="Vector_2" d="M8.31313 12.4697H11.4306V22.5286H8.31313V12.4697ZM9.90301 7.47144C10.2602 7.47144 10.6093 7.57723 10.9065 7.77545C11.2036 7.97367 11.4353 8.25545 11.5725 8.58523C11.7096 8.91501 11.746 9.27803 11.6771 9.62848C11.6082 9.97893 11.437 10.3011 11.1852 10.5544C10.9333 10.8077 10.6121 10.9807 10.2621 11.0516C9.91203 11.1226 9.54882 11.0882 9.21825 10.953C8.88769 10.8177 8.60459 10.5876 8.40467 10.2916C8.20475 9.99564 8.09696 9.64709 8.09491 9.28993C8.09354 9.05161 8.1393 8.81538 8.22955 8.59481C8.3198 8.37424 8.45277 8.17369 8.6208 8.00469C8.78884 7.83569 8.98862 7.70157 9.20867 7.61006C9.42872 7.51854 9.66469 7.47143 9.90301 7.47144ZM13.4257 12.4697H16.4288V13.8414C16.7294 13.3283 17.1637 12.9066 17.6853 12.6211C18.2069 12.3356 18.7962 12.1971 19.3904 12.2203C22.5078 12.2203 23.1417 14.2986 23.1417 17.0108V22.5286H20.0242V17.6654C20.0242 16.5016 20.0242 14.9948 18.4032 14.9948C16.7821 14.9948 16.5327 16.2626 16.5327 17.5719V22.5494H13.4153L13.4257 12.4697Z" fill="white"/>
</g>
</g>
</g>
<defs>
<clipPath id="clip0_745_196">
<rect width="30" height="30" fill="white"/>
</clipPath>
</defs>
</svg>
