<svg width="36" height="32" viewBox="0 0 36 32" fill="none" xmlns="http://www.w3.org/2000/svg">
<path id="Vector" d="M35.1644 6.25778C34.6023 4.44375 33.4739 2.85746 31.9447 1.73133C30.4155 0.605207 28.5658 -0.00153908 26.6667 2.93194e-06H8.88889C6.98976 -0.00153908 5.14006 0.605207 3.61083 1.73133C2.08161 2.85746 0.953253 4.44375 0.391111 6.25778C0.134509 7.11136 0.00277358 7.99758 0 8.88889V23.1111C0.000942311 25.4683 0.93775 27.7287 2.60454 29.3955C4.27132 31.0622 6.5317 31.9991 8.88889 32H26.6667C29.0239 31.9991 31.2842 31.0622 32.951 29.3955C34.6178 27.7287 35.5546 25.4683 35.5556 23.1111V8.88889C35.5528 7.99758 35.421 7.11136 35.1644 6.25778ZM8.88889 3.55556H26.6667C27.9319 3.55934 29.1549 4.0115 30.1183 4.83172C31.0818 5.65193 31.7233 6.78709 31.9289 8.03556L17.7778 15.7511L3.62667 8.03556C3.83228 6.78709 4.47378 5.65193 5.43721 4.83172C6.40064 4.0115 7.62361 3.55934 8.88889 3.55556ZM32 23.1111C31.9958 24.5243 31.4325 25.8784 30.4332 26.8777C29.434 27.877 28.0799 28.4402 26.6667 28.4444H8.88889C7.4757 28.4402 6.1216 27.877 5.12231 26.8777C4.12303 25.8784 3.55978 24.5243 3.55556 23.1111V12.0533L16.9244 19.3422C17.187 19.4826 17.4801 19.556 17.7778 19.556C18.0755 19.556 18.3686 19.4826 18.6311 19.3422L32 12.0533V23.1111Z" fill="#FAA435"/>
</svg>
