<svg width="44" height="44" viewBox="0 0 44 44" fill="none" xmlns="http://www.w3.org/2000/svg">
<path id="Vector" d="M20.4286 0V3.21514C15.9909 3.59311 11.8299 5.52831 8.68144 8.67845C5.53302 11.8286 3.60011 15.9907 3.22457 20.4286H0V23.5714H3.22457C3.60152 28.0082 5.53505 32.1688 8.68334 35.3177C11.8316 38.4665 15.9919 40.4008 20.4286 40.7786V44H23.5714V40.7786C28.0087 40.4015 32.1697 38.4675 35.3186 35.3186C38.4675 32.1697 40.4015 28.0087 40.7786 23.5714H44V20.4286H40.7786C40.4029 15.9902 38.4696 11.8277 35.3205 8.6775C32.1715 5.52729 28.0097 3.59241 23.5714 3.21514V0H20.4286ZM22 6.28571C30.6994 6.28571 37.7143 13.3037 37.7143 22C37.7143 30.6963 30.6994 37.7143 22 37.7143C13.3037 37.7143 6.28571 30.6963 6.28571 22C6.28571 13.3037 13.3037 6.28571 22 6.28571ZM22 12.5714C16.8143 12.5714 12.5714 16.8111 12.5714 22C12.5714 27.1857 16.8143 31.4286 22 31.4286C27.1889 31.4286 31.4286 27.1857 31.4286 22C31.4286 16.8111 27.1889 12.5714 22 12.5714ZM22 15.7143C25.4886 15.7143 28.2857 18.5114 28.2857 22C28.2857 25.4886 25.4886 28.2857 22 28.2857C18.5114 28.2857 15.7143 25.4886 15.7143 22C15.7143 18.5114 18.5114 15.7143 22 15.7143Z" fill="#2E3192"/>
</svg>
